<?xml version="1.0" encoding="UTF-8"?>
<svg width="133px" height="132px" viewBox="0 0 133 132" version="1.1" xmlns="http://www.w3.org/2000/svg" xmlns:xlink="http://www.w3.org/1999/xlink">
    <title>Gateway</title>
    <defs>
        <polygon id="path-1" points="0 0.133 119.5155 0.133 119.5155 51.0218 0 51.0218"></polygon>
        <polygon id="path-3" points="0.0023 0.7467 119.52 0.7467 119.52 39.9997 0.0023 39.9997"></polygon>
    </defs>
    <g id="Gateway" stroke="none" stroke-width="1" fill="none" fill-rule="evenodd" transform="translate(0.000000, 0.000000)">
        <rect id="矩形" x="0" y="0" width="132" height="132"></rect>
        <g id="编组" transform="translate(6.000000, 29.000000)">
            <g transform="translate(0.000000, 0.867100)">
                <mask id="mask-2" fill="white">
                    <use xlink:href="#path-1"></use>
                </mask>
                <g id="Clip-2"></g>
                <path d="M119.5155,25.5778 C119.5155,29.3948 117.5275,33.0148 113.9585,36.2708 C112.4375,37.6658 110.6285,38.9968 108.5605,40.2448 C105.4695,42.1068 101.8015,43.7818 97.6655,45.2278 C87.3575,48.8488 74.1575,51.0218 59.7625,51.0218 C45.3285,51.0218 32.0985,48.8688 21.7805,45.2688 C17.6545,43.8238 13.9865,42.1488 10.8945,40.2868 C8.8075,39.0278 6.9785,37.6858 5.4475,36.2708 C1.9485,33.0258 -0.0005,29.4058 -0.0005,25.5778 C-0.0005,11.5968 26.7205,0.1328 59.7625,0.1328 C92.7945,0.1328 119.5155,11.5968 119.5155,25.5778" id="Fill-1" fill="#005564" opacity="0.75" mask="url(#mask-2)"></path>
            </g>
            <g transform="translate(0.000000, 34.867100)">
                <mask id="mask-4" fill="white">
                    <use xlink:href="#path-3"></use>
                </mask>
                <g id="Clip-4"></g>
                <path d="M119.5203,0.7467 L119.5203,14.5567 C119.5203,14.6277 119.5203,14.7087 119.5093,14.7807 C119.4453,18.5167 117.4483,22.0577 113.9613,25.2517 C112.4423,26.6407 110.6243,27.9767 108.5633,29.2227 C105.4703,31.0797 101.8033,32.7637 97.6693,34.2027 C87.3613,37.8257 74.1623,39.9997 59.7613,39.9997 C45.3303,39.9997 32.0983,37.8467 21.7793,34.2437 C17.6553,32.8047 13.9893,31.1207 10.8963,29.2637 C8.8023,28.0077 6.9743,26.6607 5.4443,25.2517 C2.0113,22.0677 0.0783,18.5257 0.0133,14.7807 C0.0023,14.7087 0.0023,14.6277 0.0023,14.5567 L0.0023,0.8287 C0.8963,2.0847 1.9693,3.3097 3.2343,4.4727 C4.9023,6.0137 6.9113,7.4937 9.1963,8.8817 C12.4693,10.8507 16.3273,12.6167 20.6953,14.1477 C31.6633,17.9757 45.5413,20.0877 59.7613,20.0877 C73.9283,20.0877 87.7863,17.9647 98.7533,14.1067 C103.1113,12.5867 106.9793,10.8097 110.2523,8.8407 C112.5053,7.4827 114.4933,6.0237 116.1513,4.4927 C117.4573,3.2887 118.5843,2.0327 119.5203,0.7467" id="Fill-3" fill="#005564" mask="url(#mask-4)"></path>
            </g>
            <polygon id="Fill-5" fill="#FFFFFF" points="63.1297 42.189 60.4197 42.189 60.8937 10.013 63.2557 10.013 65.6177 10.013 65.8387 42.189"></polygon>
            <polyline id="Fill-7" fill="#FFFFFF" points="31.6199 14.8443 48.4329 14.7443 43.2819 11.6913 41.9299 10.8833 45.5459 8.9843 46.7939 9.6673 56.0039 15.0523 57.9499 16.1413 55.8069 17.2433 45.2919 23.0863 43.9839 23.7903 42.7279 23.0103 40.5999 21.6923 42.0559 20.9353 42.0999 20.9123 48.1719 17.6113 31.2029 17.7133"></polyline>
            <polyline id="Fill-9" fill="#FFFFFF" points="29.0321 32.6704 47.1851 32.5544 41.6481 28.9984 40.1961 28.0604 44.1081 25.8544 45.4481 26.6484 55.3561 32.9124 57.4561 34.1834 55.1361 35.4704 43.7321 42.3064 42.3111 43.1324 40.9581 42.2164 38.6651 40.6714 40.2471 39.7854 40.2961 39.7584 46.8851 35.8994 28.5461 36.0194"></polyline>
            <polyline id="Fill-11" fill="#FFFFFF" points="69.5155 23.439 86.9565 23.331 81.0645 20.04 79.5175 19.17 82.9315 17.126 84.3485 17.862 94.8725 23.663 97.0905 24.837 95.0625 26.027 85.1835 32.338 83.9495 33.1 82.5035 32.256 80.0565 30.831 81.4355 30.013 81.4775 29.988 87.1975 26.423 69.5865 26.534"></polyline>
        </g>
    </g>
</svg>